<?xml version="1.0" encoding="UTF-8" standalone="no"?>
<!-- Created with Inkscape (http://www.inkscape.org/) -->

<svg
   width="32mm"
   height="32mm"
   viewBox="0 0 32 32"
   version="1.1"
   id="svg1"
   xml:space="preserve"
   inkscape:version="1.3.2 (091e20e, 2023-11-25, custom)"
   sodipodi:docname="favicon.svg"
   inkscape:export-filename="../favicon.png"
   inkscape:export-xdpi="25.4"
   inkscape:export-ydpi="25.4"
   xmlns:inkscape="http://www.inkscape.org/namespaces/inkscape"
   xmlns:sodipodi="http://sodipodi.sourceforge.net/DTD/sodipodi-0.dtd"
   xmlns="http://www.w3.org/2000/svg"
   xmlns:svg="http://www.w3.org/2000/svg"><sodipodi:namedview
     id="namedview1"
     pagecolor="#ffffff"
     bordercolor="#000000"
     borderopacity="0.25"
     inkscape:showpageshadow="2"
     inkscape:pageopacity="0.0"
     inkscape:pagecheckerboard="0"
     inkscape:deskcolor="#d1d1d1"
     inkscape:document-units="mm"
     inkscape:zoom="5.6568543"
     inkscape:cx="-39.686368"
     inkscape:cy="33.67596"
     inkscape:window-width="3200"
     inkscape:window-height="1711"
     inkscape:window-x="1911"
     inkscape:window-y="-9"
     inkscape:window-maximized="1"
     inkscape:current-layer="layer1"
     inkscape:export-bgcolor="#ffffff00" /><defs
     id="defs1" /><g
     inkscape:label="Camada 1"
     inkscape:groupmode="layer"
     id="layer1"><g
       id="g11"><ellipse
         style="fill:#7467c5;fill-opacity:1;stroke:#7467c5;stroke-width:0.269139;stroke-linejoin:round;stroke-dasharray:none;stroke-dashoffset:0;stroke-opacity:1"
         id="path84"
         cx="16.056902"
         cy="16.023829"
         rx="15.792248"
         ry="15.891467" /><rect
         style="fill:none;fill-opacity:1;stroke:none;stroke-width:0.111331;stroke-linejoin:round;stroke-dasharray:none;stroke-dashoffset:0;stroke-opacity:1"
         id="rect82"
         width="28.719419"
         height="31.682716"
         x="1.9722474"
         y="0.41425943"
         ry="1.1475627" /><rect
         style="fill:none;fill-opacity:1;stroke:none;stroke-width:0.111331;stroke-linejoin:round;stroke-dasharray:none;stroke-dashoffset:0;stroke-opacity:1"
         id="rect83"
         width="0.060082469"
         height="1.5966091"
         x="30.631588"
         y="0.2645807"
         ry="0.024947017" /><g
         id="g84"
         transform="matrix(0.85697693,0,0,0.88155737,-27.450213,-2.7078052)"><path
           id="path5"
           style="fill:#f7f7f7;fill-opacity:1;stroke-width:0.424308"
           d="m 50.632451,4.4884482 c -3.650706,0.00196 -3.992143,0.017647 -4.474323,0.2034096 -0.39844,0.1535256 -0.577737,0.3059731 -0.758585,0.644228 -0.130298,0.2436975 -0.238615,0.5561584 -0.239997,0.6946408 -0.0043,0.3996272 0.446161,1.0805893 0.84783,1.282008 l 0.368438,0.1846513 v 4.8988301 4.899416 l -2.878159,4.53363 c -1.582858,2.493251 -3.442732,5.422177 -4.132417,6.508521 -1.301132,2.049413 -1.622369,2.687239 -1.488225,3.466169 0.326512,-0.0025 0.539076,-0.006 0.898483,-0.01172 -0.01327,-0.02068 -0.02557,-0.0397 -0.0392,-0.06155 -0.0069,-0.01087 -0.01903,-0.0206 -0.0205,-0.03283 -0.0036,-0.03084 -0.0028,-0.0422 0,-0.04455 -0.0045,-1.18e-4 -0.0089,3.06e-4 -0.01025,-0.0035 -0.0045,-0.01016 0.02638,-0.02086 0.003,-0.03224 -0.0065,-0.0097 -0.01687,-0.01701 -0.02291,-0.02697 -0.0089,-0.01462 -0.0078,-0.04799 -0.0084,-0.06038 -0.05125,-0.05618 -0.0076,9.39e-4 -0.0404,-0.08207 -0.02214,-0.05596 -0.03266,-0.03544 -0.0392,-0.09379 -0.0025,-0.02123 0.0033,-0.04271 6.03e-4,-0.0639 -0.002,-0.01557 -0.01,-0.03005 -0.01507,-0.04514 0.0027,-0.100145 -0.0073,-0.166497 0.06935,-0.262616 0.06636,-0.08319 0.142094,-0.165873 0.2406,-0.221581 0.0921,-0.05206 0.182142,-0.07101 0.274972,-0.07269 0.04885,-7.76e-4 0.09879,0.0031 0.150149,0.0094 0.260168,-0.477946 1.103821,-1.863497 2.075555,-3.399344 l 1.938069,-3.062867 c -0.0057,-0.02904 0.0023,-0.06827 0.03196,-0.114308 9.54e-4,-0.0016 0.0019,-0.0032 0.003,-0.0047 0.01033,-0.01653 0.02134,-0.03311 0.03256,-0.04924 0.01087,-0.01599 0.02183,-0.03204 0.03256,-0.04807 0.01204,-0.01788 0.0225,-0.03598 0.03437,-0.05393 0.01553,-0.0244 0.03157,-0.04916 0.04643,-0.07386 0.01645,-0.02728 0.03337,-0.05425 0.05005,-0.08148 0.01923,-0.03108 0.03903,-0.06195 0.05909,-0.09262 0.02132,-0.03288 0.04306,-0.0654 0.06392,-0.09848 0.02042,-0.03252 0.04026,-0.06522 0.0603,-0.0979 0.01974,-0.03175 0.03964,-0.06365 0.0603,-0.09496 0.01934,-0.02979 0.03893,-0.05915 0.05789,-0.0891 0.01693,-0.02685 0.03394,-0.05373 0.05005,-0.08089 0.01194,-0.01982 0.02328,-0.04021 0.03437,-0.06038 0.009,-0.01669 0.01821,-0.03281 0.02774,-0.04924 0.0079,-0.01377 0.01521,-0.02776 0.02412,-0.04103 0.0075,-0.01119 0.01558,-0.0222 0.02412,-0.03283 0.0094,-0.01251 0.01907,-0.02501 0.02955,-0.03693 0.007,-0.0075 0.014,-0.01512 0.0205,-0.02286 0.01869,-0.02215 0.03788,-0.03871 0.05668,-0.051 l 0.26472,-0.400371 c 0.197296,-0.298658 0.99747,-1.549816 1.778272,-2.779735 l 1.419482,-2.236333 v -0.635436 c -0.21219,-0.02746 -0.420696,-0.281455 -0.462507,-0.776121 -0.0082,-0.09758 0.002,-0.194938 0.01266,-0.291925 0.0108,-0.08437 0.02282,-0.168965 0.03437,-0.253237 0.01018,-0.07589 0.02121,-0.151555 0.03136,-0.227443 0.0082,-0.07065 0.01171,-0.141812 0.01568,-0.212789 0.0024,-0.08431 0.0078,-0.168458 0.01206,-0.25265 -0.0043,-0.06421 -0.0072,-0.12846 -0.0084,-0.192858 -0.0013,-0.08283 -0.0016,-0.165709 -0.0018,-0.248546 0.0019,-0.106513 0.0045,-0.212957 0.006,-0.319477 0.0015,-0.138484 0.001,-0.277214 0.0066,-0.415612 0.0041,-0.07579 0.01914,-0.150316 0.03196,-0.225099 -0.0017,-0.18837 -0.0034,-0.376689 -0.0042,-0.565091 3.51e-4,-0.234091 -0.0056,-0.468232 -0.01025,-0.702262 -0.0066,-0.236316 -0.01109,-0.472919 -0.01447,-0.709295 -0.0039,-0.213134 -0.0025,-0.426398 -6.03e-4,-0.639539 0.0015,-0.153228 0.0081,-0.306011 0.01688,-0.45899 0.0069,-0.113928 0.01041,-0.228317 0.01508,-0.342338 0.0054,-0.1179347 0.0067,-0.2360266 0.006,-0.3540617 -0.0013,-0.1120267 -0.0022,-0.2238597 -0.003,-0.3358896 -1.51e-4,-0.023263 1.17e-4,-0.046506 0,-0.069757 -0.02097,-0.092414 -0.03488,-0.1953162 -0.03558,-0.3136142 -3.5e-4,-0.062038 4.1e-5,-0.1244731 0.0042,-0.1864099 0.0019,-0.032375 0.0059,-0.064485 0.0084,-0.096722 -0.01071,-0.1723632 0.0063,-0.3175042 0.04342,-0.4343703 0.0371,-0.3180528 0.153014,-0.5291015 0.296077,-0.6254698 v -0.07093 h 3.046399 3.046398 v 4.9779665 4.977966 l 1.419482,2.236333 c 0.78076,1.229919 1.581582,2.481075 1.778875,2.779735 l 0.305122,0.462508 c 9.14e-4,-1.02e-4 0.0021,-5.52e-4 0.003,-5.86e-4 0.03007,-0.002 0.06981,0.01953 0.1001,0.07152 0.014,0.02401 0.03043,0.04706 0.04703,0.06976 0.03142,0.04166 0.06386,0.08237 0.09588,0.123687 0.02115,0.02772 0.0428,0.05541 0.06271,0.08383 0.01115,0.01591 0.01897,0.02784 0.02955,0.04396 0.02708,0.04159 0.0519,0.08363 0.07719,0.126032 0.02737,0.04544 0.05335,0.09175 0.07779,0.138342 0.0234,0.04538 0.04486,0.0915 0.06573,0.137756 0.01893,0.0424 0.03751,0.08469 0.05608,0.127204 0.01606,0.03608 0.03282,0.07218 0.05005,0.10786 0.01768,0.03699 0.03654,0.07334 0.05608,0.109618 0.01851,0.03418 0.03778,0.06822 0.05729,0.101998 0.0096,0.01635 0.0052,0.0083 0.01447,0.02403 l 0.0012,0.0023 2.020078,3.209416 c 0.844861,1.342778 1.460011,2.37309 1.821688,3.032386 0.06123,0.0222 0.124143,0.04637 0.189948,0.07503 0.04746,0.02069 0.0979,0.03612 0.141104,0.06331 0.01312,0.0082 0.06445,0.04795 0.07779,0.05803 0.127734,0.0265 -0.06637,-0.02073 0.05849,0.03693 0.01073,0.0048 0.02503,-0.0049 0.03678,-0.0018 0.0056,0.0016 0.0037,0.01076 0.009,0.01348 0.0095,0.0053 0.02128,0.0061 0.03196,0.0094 0.426344,0.133616 0.613806,0.364328 0.636174,0.579747 0.153281,-0.0028 0.286316,0.603 0.375674,0.603195 -9.13e-4,0.04425 0.05272,-0.249907 0.05427,-0.379268 9.13e-4,-0.05385 -0.0045,-0.07762 -0.0084,-0.133067 0.0028,-7e-6 0.001,1.3e-5 0.0036,0 -3.5e-4,-0.0138 -0.0032,-0.02779 -0.0042,-0.04162 -0.0014,1.81e-4 -0.001,-1.45e-4 -0.0024,0 -0.0055,-0.06465 -0.01,-0.159756 -0.01085,-0.168824 -0.01722,-0.178158 -0.05363,-0.348433 -0.113366,-0.531092 -0.111359,-0.340549 -1.065778,-1.904975 -3.098257,-5.078205 -0.218631,-0.341335 -1.499864,-2.3569 -2.847406,-4.479115 l -2.450627,-3.85892 V 12.399147 7.4973859 l 0.368439,-0.1846513 c 0.397162,-0.1991507 0.850241,-0.8785988 0.850241,-1.2749736 0,-0.4931255 -0.473263,-1.1138343 -1.020893,-1.3388689 C 54.611921,4.4970397 54.377249,4.4864937 50.633054,4.4884482 Z m 0.0078,1.032289 c 3.366421,0 3.907262,0.021421 4.073322,0.1623759 0.105312,0.089398 0.191153,0.2489995 0.191153,0.3546479 0,0.1056525 -0.08583,0.2652497 -0.191153,0.3546478 -0.16606,0.1409574 -0.706901,0.162376 -4.073322,0.162376 -3.366334,0 -3.907354,-0.021407 -4.073322,-0.162376 -0.105288,-0.089398 -0.191154,-0.2489953 -0.191154,-0.3546478 0,-0.1056484 0.08583,-0.2652503 0.191154,-0.3546479 0.16597,-0.1409569 0.706987,-0.1623759 4.073322,-0.1623759 z m -1.612445,5.4979208 c 0.0016,-0.0041 -0.0043,0.0077 -0.006,0.01172 -0.002,0.0046 -0.0035,0.0095 -0.0054,0.01407 0.004,-0.0086 0.0079,-0.01698 0.01146,-0.02579 z m -0.54331,4.0084 c -8e-5,0.0067 0.0026,0.0131 0.0054,0.01934 -0.0016,-0.0059 -0.0029,-0.0119 -0.0042,-0.01759 -4.61e-4,-5.67e-4 -0.0012,-0.0025 -0.0012,-0.0018 z M 38.718813,31.6533 c 0.0073,0.005 0.01795,0.03545 0.0042,5.86e-4 -0.0011,-2.49e-4 -0.0028,-5.22e-4 -0.0042,-5.86e-4 z" /><path
           style="fill:#7568c6;fill-opacity:1;stroke:#f7f7f7;stroke-width:0.114138;stroke-linejoin:round;stroke-dasharray:none;stroke-dashoffset:0;stroke-opacity:1"
           d="m 57.218839,22.958831 0.80238,1.269639 0.0093,0.009"
           id="path80" /><path
           style="fill:#7467c5;fill-opacity:1;stroke:#f7f7f7;stroke-width:0.11907;stroke-linejoin:round;stroke-dasharray:none;stroke-dashoffset:0;stroke-opacity:1"
           d="m 44.140157,22.83699 -0.888401,1.412211"
           id="path82" /><path
           id="rect84"
           style="fill:none;fill-opacity:1;stroke:none;stroke-width:0.114138;stroke-linejoin:round;stroke-dasharray:none;stroke-dashoffset:0;stroke-opacity:1"
           d="m 36.572706,3.8788056 c -0.01433,0 -0.02593,0.011467 -0.02593,0.025793 V 36.848158 c 0,0.01433 0.0116,0.02579 0.02593,0.02579 H 64.42446 c 0.01432,0 0.02593,-0.01147 0.02593,-0.02579 V 3.9045982 c 0,-0.014326 -0.0116,-0.025793 -0.02593,-0.025793 z m 11.129727,4.0500197 c 0.227434,0.010303 0.465657,0.2593338 0.516778,0.7667428 0.0028,0.028304 0.0058,0.05673 0.009,0.084998 0.0099,0.095226 0.01476,0.1909041 0.01266,0.2866493 1.75e-4,0.1042179 4.78e-4,0.2082253 0.0012,0.3124418 9.34e-4,0.1127123 0.0019,0.225525 0.003,0.3382344 7e-4,0.1321166 -0.0012,0.2642631 -0.0072,0.3962672 -0.0049,0.11891 -0.008,0.237597 -0.01508,0.356407 -0.0079,0.13843 -0.01428,0.276953 -0.01568,0.415612 -0.0018,0.206 -0.0032,0.412442 6.03e-4,0.618435 0.0033,0.234779 0.0081,0.469301 0.01447,0.70402 0.0047,0.238715 0.01058,0.477554 0.01025,0.71633 9.34e-4,0.21914 0.0027,0.437992 0.0048,0.657125 0.0013,0.203107 4.47e-4,0.406569 -0.0042,0.609642 -0.0044,0.18868 -0.01118,0.377309 -0.02352,0.565678 -0.0095,0.147457 -0.01644,0.294897 -0.02111,0.442577 -0.0053,0.09464 -0.0095,0.189038 -0.02171,0.283132 -0.01038,0.07657 -0.02157,0.153208 -0.03196,0.229789 -0.01055,0.07661 -0.02169,0.153128 -0.03196,0.229788 -0.0046,0.03951 -0.01043,0.07979 -0.0096,0.119584 0.02132,1.087449 -0.870174,1.155515 -0.961798,0.07152 -0.0082,-0.09758 0.002,-0.194938 0.01266,-0.291925 0.0108,-0.08437 0.02282,-0.168965 0.03437,-0.253237 0.01018,-0.07589 0.02121,-0.151555 0.03136,-0.227443 0.0082,-0.07065 0.01171,-0.141812 0.01568,-0.212789 0.0044,-0.15024 0.01202,-0.300196 0.02171,-0.450197 0.01145,-0.175842 0.01762,-0.352029 0.02171,-0.528162 0.0045,-0.193944 0.0049,-0.387529 0.0036,-0.581505 -0.0021,-0.21986 -0.0039,-0.439602 -0.0048,-0.659469 3.51e-4,-0.234091 -0.0056,-0.468232 -0.01025,-0.702262 -0.0066,-0.236316 -0.01109,-0.472919 -0.01447,-0.709295 -0.0039,-0.213134 -0.0025,-0.426398 -6.03e-4,-0.639539 0.0015,-0.153228 0.0081,-0.306011 0.01688,-0.45899 0.0069,-0.113928 0.01041,-0.228317 0.01508,-0.342338 0.0054,-0.1179347 0.0067,-0.2360266 0.006,-0.3540617 -0.0013,-0.1120267 -0.0022,-0.2238597 -0.003,-0.3358896 -6.88e-4,-0.105955 -9.96e-4,-0.211761 -0.0012,-0.3177176 0.0019,-0.064319 -9.55e-4,-0.1283533 -0.0078,-0.1922718 -0.0034,-0.02972 -0.006,-0.059344 -0.009,-0.089102 -0.05823,-0.5750355 0.185453,-0.8704523 0.443212,-0.8587753 z" /><ellipse
           style="fill:none;stroke:#f7f7f7;stroke-width:0.938704;stroke-linejoin:round;stroke-dasharray:none"
           id="path1"
           cx="50.6427"
           cy="31.790468"
           rx="12.332051"
           ry="3.8182154" /><path
           style="fill:none;stroke:#f7f7f7;stroke-width:1.07201;stroke-linejoin:round;stroke-dasharray:none"
           d="m 47.070192,7.5108126 -0.01384,9.9548704"
           id="path9" /></g></g></g></svg>
