<?xml version="1.0" encoding="UTF-8" standalone="no"?>
<!-- Created with Inkscape (http://www.inkscape.org/) -->

<svg
   width="32mm"
   height="32mm"
   viewBox="0 0 32 32"
   version="1.1"
   id="svg1"
   xml:space="preserve"
   inkscape:version="1.3.2 (091e20e, 2023-11-25, custom)"
   sodipodi:docname="favicon.svg"
   inkscape:export-filename="../favicon.svg"
   inkscape:export-xdpi="25.4"
   inkscape:export-ydpi="25.4"
   xmlns:inkscape="http://www.inkscape.org/namespaces/inkscape"
   xmlns:sodipodi="http://sodipodi.sourceforge.net/DTD/sodipodi-0.dtd"
   xmlns="http://www.w3.org/2000/svg"
   xmlns:svg="http://www.w3.org/2000/svg"><sodipodi:namedview
     id="namedview1"
     pagecolor="#ffffff"
     bordercolor="#000000"
     borderopacity="0.25"
     inkscape:showpageshadow="2"
     inkscape:pageopacity="0.0"
     inkscape:pagecheckerboard="0"
     inkscape:deskcolor="#d1d1d1"
     inkscape:document-units="mm"
     inkscape:zoom="8"
     inkscape:cx="-5.3125"
     inkscape:cy="45.1875"
     inkscape:window-width="3200"
     inkscape:window-height="1711"
     inkscape:window-x="1911"
     inkscape:window-y="-9"
     inkscape:window-maximized="1"
     inkscape:current-layer="g84"
     inkscape:export-bgcolor="#ffffff00" /><defs
     id="defs1" /><g
     inkscape:label="Camada 1"
     inkscape:groupmode="layer"
     id="layer1"><ellipse
       style="fill:#7467c5;fill-opacity:1;stroke:#7467c5;stroke-width:0.269139;stroke-linejoin:round;stroke-dasharray:none;stroke-dashoffset:0;stroke-opacity:1"
       id="path84"
       cx="16.056902"
       cy="16.023829"
       rx="15.792248"
       ry="15.891467" /><circle
       id="path7"
       style="fill:#000000;stroke:#000000;stroke-width:0.264583"
       cx="157.62625"
       cy="136.00099"
       r="0.025319269" /><rect
       style="fill:none;fill-opacity:1;stroke:none;stroke-width:0.111331;stroke-linejoin:round;stroke-dasharray:none;stroke-dashoffset:0;stroke-opacity:1"
       id="rect82"
       width="28.719419"
       height="31.682716"
       x="1.9722474"
       y="0.41425943"
       ry="1.1475627" /><rect
       style="fill:none;fill-opacity:1;stroke:none;stroke-width:0.111331;stroke-linejoin:round;stroke-dasharray:none;stroke-dashoffset:0;stroke-opacity:1"
       id="rect83"
       width="0.060082469"
       height="1.5966091"
       x="30.631588"
       y="0.2645807"
       ry="0.024947017" /><g
       id="g84"
       transform="matrix(0.85697693,0,0,0.88155737,-27.450213,-2.7078052)"><path
         id="path5"
         style="fill:#f7f7f7;fill-opacity:1;stroke-width:0.424308"
         d="m 50.632375,4.4884376 c -3.650721,0.00196 -3.992001,0.01767 -4.474186,0.2034328 -0.39844,0.1535266 -0.578098,0.3057786 -0.758946,0.6440355 -0.130298,0.2436985 -0.238035,0.5564628 -0.239417,0.6949462 -0.0043,0.3996292 0.446047,1.0805956 0.847716,1.2820153 l 0.36817,0.1846443 v 4.8989693 4.899168 l -2.877999,4.533515 c -1.582863,2.493266 -3.442507,5.422107 -4.132197,6.508456 -1.301137,2.049428 -1.622763,2.687111 -1.488619,3.466046 0.326512,-0.0025 0.539476,-0.0056 0.898883,-0.0113 -0.01327,-0.02068 -0.02611,-0.03998 -0.03974,-0.06183 -0.0069,-0.01087 -0.01899,-0.02049 -0.02046,-0.03272 -0.0036,-0.03084 -0.0026,-0.04208 2.39e-4,-0.04443 -0.0045,-1.18e-4 -0.0087,3.91e-4 -0.01004,-0.0035 -0.0045,-0.01016 0.02623,-0.02115 0.0029,-0.03253 -0.0065,-0.0097 -0.01728,-0.01709 -0.02333,-0.02705 -0.0089,-0.01462 -0.0077,-0.04781 -0.0083,-0.0602 -0.05125,-0.05618 -0.0074,7.74e-4 -0.04021,-0.08222 -0.02214,-0.05596 -0.03249,-0.03518 -0.03903,-0.09353 -0.0025,-0.02123 0.0032,-0.04265 4.61e-4,-0.06384 -0.002,-0.01557 -0.0099,-0.03017 -0.015,-0.04526 0.0027,-0.100145 -0.0074,-0.166306 0.06926,-0.262425 0.06636,-0.08319 0.142338,-0.165907 0.240844,-0.221615 0.0921,-0.05206 0.18181,-0.07104 0.27464,-0.07272 0.04885,-7.76e-4 0.09857,0.0031 0.149932,0.0094 0.260168,-0.477946 1.104236,-1.86353 2.075975,-3.399382 l 1.937705,-3.062824 c -0.0057,-0.02904 0.0025,-0.0683 0.03213,-0.114344 9.54e-4,-0.0016 0.0022,-0.0035 0.0033,-0.005 0.01033,-0.01653 0.02091,-0.03296 0.03213,-0.04909 0.01087,-0.01599 0.02188,-0.03186 0.03261,-0.04789 0.01204,-0.01788 0.02288,-0.03619 0.03475,-0.05414 0.01553,-0.0244 0.03131,-0.04883 0.04617,-0.07353 0.01645,-0.02728 0.0333,-0.05439 0.04998,-0.08162 0.01923,-0.03108 0.0392,-0.06184 0.05926,-0.09251 0.02132,-0.03288 0.04292,-0.06551 0.06378,-0.09859 0.02042,-0.03252 0.04017,-0.0653 0.06021,-0.09798 0.01974,-0.03175 0.03979,-0.06344 0.06045,-0.09475 0.01934,-0.02979 0.03864,-0.05954 0.0576,-0.08949 0.01693,-0.02685 0.0341,-0.0536 0.05021,-0.0808 0.01194,-0.01982 0.02366,-0.03984 0.03475,-0.06001 0.009,-0.01669 0.01784,-0.03326 0.02737,-0.04969 0.0079,-0.01377 0.01559,-0.02752 0.0245,-0.04079 0.0075,-0.01119 0.01526,-0.02229 0.0238,-0.03292 0.0094,-0.01251 0.01927,-0.02487 0.02975,-0.03679 0.007,-0.0075 0.01373,-0.01509 0.02023,-0.02283 0.01869,-0.02215 0.03784,-0.03882 0.05664,-0.05111 l 0.264643,-0.400488 c 0.197296,-0.298663 0.997684,-1.549451 1.778491,-2.77938 l 1.419601,-2.236365 v -0.840807 -0.840805 h 0.722536 c 0.767962,0 1.105218,-0.157885 1.105218,-0.517169 0,-0.359313 -0.337256,-0.517167 -1.105218,-0.517167 H 47.593974 V 14.312459 13.79529 h 0.41791 c 0.460112,0 0.800831,-0.220048 0.800831,-0.517168 0,-0.297177 -0.340719,-0.51717 -0.800831,-0.51717 h -0.417883 v -0.517151 -0.517167 h 0.722535 c 0.767962,0 1.105218,-0.157861 1.105218,-0.517169 0,-0.35931 -0.337256,-0.517172 -1.105218,-0.517172 H 47.593954 V 10.175038 9.6578686 h 0.417909 c 0.460112,0 0.80083,-0.2200174 0.80083,-0.5171721 0,-0.2971739 -0.340718,-0.5171665 -0.80083,-0.5171665 H 47.593954 V 8.1063593 7.5891889 h 3.046492 3.046258 v 4.9781611 4.978156 l 1.419603,2.236356 c 0.780765,1.229929 1.581196,2.480716 1.778489,2.779381 l 0.305336,0.46242 c 9.14e-4,-1.02e-4 0.0019,-3.56e-4 0.0028,-3.9e-4 0.03007,-0.002 0.06989,0.01973 0.100185,0.07172 0.014,0.02401 0.03072,0.04679 0.04737,0.06949 0.03142,0.04166 0.0639,0.08252 0.09592,0.123837 0.02115,0.02772 0.04268,0.05542 0.06259,0.08384 0.01115,0.01591 0.0187,0.02752 0.02928,0.04364 0.02708,0.04159 0.0523,0.08406 0.07758,0.126466 0.02737,0.04544 0.05314,0.09159 0.07758,0.138179 0.0234,0.04538 0.04505,0.09132 0.06592,0.137577 0.01893,0.0424 0.03711,0.08516 0.05568,0.127676 0.01606,0.03608 0.03274,0.07179 0.04997,0.107472 0.01768,0.03699 0.03662,0.07362 0.05616,0.109899 0.01851,0.03418 0.03809,0.06784 0.0576,0.101622 0.0096,0.01635 0.005,0.0083 0.01428,0.02405 l 0.0014,0.0025 2.019812,3.209682 c 0.844866,1.342783 1.460121,2.372605 1.821803,3.031906 0.06123,0.0222 0.124106,0.0467 0.189911,0.07536 0.04746,0.02069 0.09769,0.03604 0.140891,0.06323 0.01312,0.0082 0.06495,0.0479 0.07829,0.05798 0.127734,0.0265 -0.06631,-0.02049 0.05855,0.03717 0.01073,0.0048 0.02491,-0.0051 0.03666,-0.002 0.0056,0.0016 0.0036,0.0106 0.0089,0.01332 0.0095,0.0053 0.02146,0.0063 0.03214,0.0096 0.426349,0.133616 0.61354,0.364174 0.635908,0.579593 0.153281,-0.0028 0.286425,0.603438 0.375783,0.603633 -9.13e-4,0.04425 0.05296,-0.250431 0.05451,-0.379797 9.13e-4,-0.05385 -0.0047,-0.07748 -0.0086,-0.132929 0.0028,-7e-6 9.12e-4,2.17e-4 0.0036,2.04e-4 -3.5e-4,-0.0138 -0.0032,-0.02799 -0.0042,-0.04182 -0.0014,1.81e-4 -9.14e-4,6e-5 -0.0023,2.05e-4 -0.0055,-0.06465 -0.01032,-0.159823 -0.0112,-0.168891 -0.01722,-0.178163 -0.05354,-0.348449 -0.113279,-0.531108 -0.111359,-0.340549 -1.065852,-1.904893 -3.098341,-5.078143 -0.218631,-0.341335 -1.499982,-2.357147 -2.847534,-4.479372 L 54.90541,17.300507 V 12.39887 7.4974765 l 0.368166,-0.1846446 c 0.397167,-0.1991517 0.850573,-0.8787694 0.850573,-1.2751462 0,-0.493128 -0.473102,-1.1135436 -1.020732,-1.3385792 C 54.612164,4.4972531 54.377263,4.4864479 50.633048,4.4884024 Z m 0.0081,1.0321167 c 3.366441,0 3.907115,0.021465 4.073175,0.16242 0.105312,0.089398 0.191344,0.2490976 0.191344,0.3547465 0,0.105653 -0.08602,0.2651448 -0.191344,0.3545434 -0.16606,0.1409579 -0.706734,0.1626272 -4.073175,0.1626272 -3.366349,0 -3.907443,-0.021658 -4.073411,-0.1626272 -0.105288,-0.089398 -0.191321,-0.2488904 -0.191321,-0.3545434 0,-0.1056489 0.08602,-0.2653484 0.191343,-0.3547465 0.16597,-0.1409579 0.707061,-0.16242 4.073411,-0.16242 z M 38.718663,31.653563 c 0.0073,0.005 0.01795,0.03507 0.0043,2.04e-4 -0.0011,-2.49e-4 -0.0029,-1.4e-4 -0.0043,-2.04e-4 z" /><path
         id="path25"
         style="color:#000000;fill:#f7f7f7;fill-opacity:1;stroke-width:0.424308;stroke-linejoin:round;-inkscape-stroke:none"
         d="m 55.033504,27.696006 v 2.03e-4 c 0.0067,0.01303 0.01321,0.02529 0.02426,0.04626 0.0081,0.02253 0.0164,0.04516 0.0245,0.06768 0.0094,0.02301 0.01975,0.04563 0.02833,0.06889 0.0022,0.0067 0.0042,0.01345 0.0064,0.02022 -0.0079,-0.0063 -0.042,-0.03204 0.08163,0.08142 0.0054,0.0051 0.01202,0.0096 0.0181,0.01435 -0.06666,-0.107973 -0.02749,-0.03334 -0.09329,-0.170103 -0.07881,-0.109359 -0.0515,-0.06764 -0.08472,-0.128077 -0.0019,-2.14e-4 -0.0037,-3.91e-4 -0.0052,-7.74e-4 z m 0.486924,0.06323 c 0.0018,0.0025 0.0032,0.0048 0.0048,0.0073 0.01998,0.02889 0.04468,0.05541 0.06402,0.08465 0.04384,0.06632 0.05278,0.100772 0.09091,0.168483 0.01326,0.02353 0.02892,0.04613 0.04306,0.06929 -9.15e-4,-0.0048 -0.0014,-0.0071 -0.0028,-0.01396 -0.0052,-0.02361 -0.0014,-0.04831 -0.0061,-0.07191 -0.0022,-0.01083 -0.0084,-0.0208 -0.0112,-0.03151 -0.0022,-0.0095 -0.0028,-0.01947 -0.0052,-0.02908 -0.01299,-0.05924 -0.0018,0.0039 -0.01096,-0.05273 -0.0049,-0.02026 -0.0052,-0.02325 -0.01142,-0.04263 -0.0022,-0.0062 -0.0049,-0.01185 -0.0061,-0.01799 -9.13e-4,-0.0048 0.0018,-0.01036 -9.13e-4,-0.01474 -0.01985,-0.01677 -0.01221,-0.0073 -0.02404,-0.02827 -8.3e-5,-0.0028 -1.33e-4,-0.0053 -2.34e-4,-0.0081 -0.04186,-0.0059 -0.0812,-0.0131 -0.123281,-0.01876 z m -10.341801,0.07434 c -1.263832,0.196712 -2.422979,0.455649 -3.419898,0.775353 -1.150735,0.369033 -2.099478,0.810733 -2.788514,1.333123 -0.689027,0.52242 -1.132349,1.153724 -1.132349,1.849284 0,0.695591 0.443322,1.32767 1.132349,1.850094 0.689036,0.522408 1.637779,0.963285 2.788514,1.332317 2.301469,0.738051 5.419491,1.181207 8.862465,1.181207 3.442968,0 6.56125,-0.443156 8.862697,-1.181207 1.150746,-0.369032 2.099239,-0.809909 2.788275,-1.332317 0.689041,-0.522424 1.132588,-1.154503 1.132588,-1.850094 0,-0.69556 -0.443547,-1.326864 -1.132588,-1.849284 -0.689036,-0.52239 -1.637529,-0.96409 -2.788275,-1.333123 -0.989268,-0.317261 -2.143639,-0.57035 -3.399909,-0.763434 1.25e-4,7.75e-4 9.8e-5,0.0016 2.39e-4,0.0028 4.62e-4,0.0035 0.01907,0.06916 0.01951,0.07111 0.0038,0.01229 0.0095,0.02405 0.01188,0.03655 0.0022,0.0129 0.0014,0.02614 0.0028,0.03919 0.0014,0.0141 0.0036,0.02814 0.0054,0.04222 -0.0058,0.0988 -0.0051,-0.0093 0.01188,0.0893 0.0022,0.01445 -4.47e-4,0.02904 4.6e-4,0.04364 0.0014,0.01549 0.0047,0.03084 0.0064,0.04626 0.0083,0.06099 0.0066,0.03612 0.0048,0.09819 0.0028,0.04368 0.0042,0.05144 0.0032,0.09535 -4.61e-4,0.01583 -0.0028,0.03143 -0.0028,0.04727 0,0.01497 0.0028,0.02986 0.0038,0.04485 0.0028,0.04644 0.0018,0.03768 -0.0022,0.08404 -0.02441,0.11344 0.0022,-0.03041 -0.0054,0.08465 -9.14e-4,0.01407 -0.0079,0.02732 -0.0093,0.04141 -1.65e-4,0.0025 -1.06e-4,0.0049 0,0.0075 1.113826,0.180382 2.134346,0.407095 2.996037,0.683431 1.072086,0.343822 1.922153,0.75118 2.476276,1.171309 0.554125,0.420134 0.798689,0.824814 0.798689,1.216962 0,0.392178 -0.244564,0.797035 -0.798689,1.217167 -0.554123,0.42013 -1.40419,0.827489 -2.476276,1.171308 -2.14427,0.687644 -5.168344,1.126863 -8.509282,1.126863 -3.340945,0 -6.364802,-0.439219 -8.50905,-1.126863 -1.072323,-0.343772 -1.922351,-0.751132 -2.476468,-1.17126 -0.554119,-0.420135 -0.797977,-0.82499 -0.797977,-1.217169 0,-0.392148 0.243858,-0.796827 0.797977,-1.216961 0.554117,-0.420131 1.404145,-0.827488 2.476271,-1.171307 0.863103,-0.276791 1.879377,-0.507806 2.991995,-0.69091 2.3e-5,-0.0025 -5.6e-5,-0.0045 0,-0.0069 8.65e-4,-0.03718 0.0014,-0.01813 -0.0017,-0.05695 5.76e-4,-0.07607 0.0075,0.01207 -9.54e-4,-0.06888 0.0031,-0.01232 0.0069,-0.02454 0.0092,-0.03698 5.28e-4,-0.0029 0.0089,-0.07365 0.0092,-0.07717 9.14e-4,-0.01294 -5.28e-4,-0.02589 0.0011,-0.03878 0.0018,-0.01388 0.0081,-0.02729 0.0094,-0.04121 0.0016,-0.01505 -4.62e-4,-0.03017 -6.73e-4,-0.04526 0.0031,-0.01525 0.0072,-0.03034 0.0095,-0.04566 0.0057,-0.03733 0.0055,-0.06461 0.0086,-0.102224 0.0014,-0.0176 0.003,-0.03518 0.0048,-0.05273 0.0017,-0.01755 0.0054,-0.03493 0.0056,-0.05252 3.23e-4,-0.01795 -0.0024,-0.03586 -0.0036,-0.05373 0.0022,-0.01705 0.0033,-0.03418 0.0067,-0.05112 0.0031,-0.01603 0.01119,-0.03148 0.01237,-0.04768 0.0011,-0.01564 -0.0065,-0.03105 -0.0054,-0.04666 9.54e-4,-0.01545 0.01096,-0.03002 0.01143,-0.04545 9.2e-5,-0.0031 -3.5e-4,-0.0058 -9.54e-4,-0.0086 z m 9.560722,0.228891 c 0.0078,0.0084 0.02164,0.02259 0.03284,0.03436 -0.0014,-0.0039 -0.0028,-0.0078 -0.0042,-0.01173 -0.009,-0.007 -0.01653,-0.01303 -0.02879,-0.02264 z" /><path
         style="fill:#f7f7f7;fill-opacity:1;stroke-width:0.173632"
         d="m 49.141418,34.233686 c -2.501123,-0.161834 -4.255307,-0.809965 -4.635169,-1.7126 -0.08918,-0.211911 -0.09025,-0.281348 -0.09025,-5.861771 0,-5.580423 9.13e-4,-5.649861 0.09025,-5.861778 0.456394,-1.084483 2.822945,-1.762443 6.152155,-1.762443 3.329204,0 5.695756,0.67796 6.152157,1.762443 0.08918,0.211917 0.09025,0.281355 0.09025,5.861778 0,5.580423 -0.0014,5.64986 -0.09025,5.861771 -0.316687,0.752525 -1.576476,1.33064 -3.472843,1.593694 -1.136843,0.157698 -2.847579,0.206174 -4.1963,0.118906 z m 3.415516,-0.928168 c 1.699314,-0.160939 2.966346,-0.543044 3.394718,-1.023751 l 0.131814,-0.147917 0.0141,-0.759513 c 0.0078,-0.417734 0.0019,-0.759516 -0.01253,-0.759516 -0.01464,0 -0.120661,0.05064 -0.235551,0.112534 -0.710456,0.382748 -1.930664,0.664086 -3.441781,0.793558 -0.685535,0.05874 -2.81307,0.05874 -3.498615,0 -1.497408,-0.128299 -2.745236,-0.415795 -3.441767,-0.792977 -0.11489,-0.06222 -0.220886,-0.113115 -0.235551,-0.113115 -0.01466,0 -0.02032,0.341782 -0.01254,0.759516 l 0.01416,0.759513 0.131813,0.147917 c 0.415995,0.466822 1.706909,0.863595 3.322507,1.02119 0.932669,0.09098 2.921789,0.0923 3.869273,0.0025 z m 0.05007,-2.694909 c 1.426743,-0.142536 2.477934,-0.420973 3.121452,-0.826803 0.3428,-0.216183 0.376806,-0.318539 0.376992,-1.134823 8.9e-5,-0.386616 -0.01704,-0.702937 -0.03799,-0.702937 -0.021,0 -0.169986,0.06431 -0.331094,0.142928 -0.631326,0.308045 -1.613117,0.546195 -2.87294,0.696882 -0.83633,0.100034 -3.413282,0.115881 -4.197893,0.02585 -1.280583,-0.147004 -2.255142,-0.365545 -2.906636,-0.651799 -0.215974,-0.09489 -0.427557,-0.184328 -0.470183,-0.198736 -0.07145,-0.02416 -0.07752,0.02952 -0.07752,0.687152 0,0.661271 0.0073,0.724876 0.09965,0.8711 0.368405,0.583179 2.160379,1.056829 4.395402,1.161776 0.549023,0.02579 2.382985,-0.01884 2.900747,-0.07056 z m -0.398583,-2.663851 c 1.492816,-0.116631 2.549203,-0.348548 3.255043,-0.714596 0.194858,-0.101051 0.414072,-0.251185 0.487146,-0.333624 l 0.13286,-0.1499 0.01409,-0.759512 c 0.0078,-0.417729 0.0054,-0.759516 -0.005,-0.759516 -0.01045,0 -0.146377,0.0619 -0.301978,0.137573 -0.637787,0.310121 -1.557663,0.546517 -2.741065,0.704426 -0.906211,0.120918 -3.898642,0.121409 -4.782651,7.76e-4 -1.183352,-0.161467 -2.120207,-0.401918 -2.735243,-0.702018 -0.158676,-0.07742 -0.297079,-0.140769 -0.307565,-0.140769 -0.01047,0 -0.01269,0.341785 -0.005,0.759518 l 0.01416,0.759512 0.125008,0.140274 c 0.443881,0.498093 1.853913,0.907457 3.617168,1.050143 0.723141,0.05851 2.527468,0.06281 3.232895,0.0077 z m 0.287858,-2.721605 c 1.844232,-0.157549 3.295644,-0.627625 3.547217,-1.148849 0.08652,-0.179277 0.09003,-1.515464 0.0042,-1.515464 -0.03196,0 -0.159362,0.05253 -0.283067,0.116767 -1.020341,0.529684 -2.773004,0.806671 -5.105997,0.806933 -2.32255,1.79e-4 -4.088795,-0.278871 -5.105998,-0.806933 -0.123712,-0.06424 -0.251092,-0.116767 -0.283072,-0.116767 -0.08605,0 -0.08256,1.336187 0.0038,1.515464 0.1878,0.389097 1.097496,0.771769 2.39577,1.007794 1.159525,0.2108 3.284066,0.272877 4.827193,0.141055 z m -0.420712,-2.66472 c 1.869188,-0.120767 3.286931,-0.492955 3.829123,-1.005236 0.2037,-0.192463 0.20738,-0.353102 0.01271,-0.553582 -0.636231,-0.655201 -2.650377,-1.061898 -5.258993,-1.061898 -1.841011,0 -3.288288,0.18258 -4.302761,0.542808 -0.539623,0.191615 -0.824463,0.355071 -1.005593,0.577072 -0.158976,0.194841 -0.14484,0.300099 0.06724,0.500463 0.411013,0.388335 1.421775,0.719736 2.767424,0.907347 0.936164,0.130516 2.669185,0.171955 3.890863,0.09303 z"
         id="path8" /><path
         style="fill:#7568c6;fill-opacity:1;stroke:#f7f7f7;stroke-width:0.114138;stroke-linejoin:round;stroke-dasharray:none;stroke-dashoffset:0;stroke-opacity:1"
         d="m 57.218839,22.958831 0.80238,1.269639 0.0093,0.009"
         id="path80" /><path
         style="fill:#7467c5;fill-opacity:1;stroke:#f7f7f7;stroke-width:0.11907;stroke-linejoin:round;stroke-dasharray:none;stroke-dashoffset:0;stroke-opacity:1"
         d="m 44.140157,22.83699 -0.888401,1.412211"
         id="path82" /><rect
         style="fill:none;fill-opacity:1;stroke:none;stroke-width:0.114138;stroke-linejoin:round;stroke-dasharray:none;stroke-dashoffset:0;stroke-opacity:1"
         id="rect84"
         width="27.903706"
         height="32.995403"
         x="36.546776"
         y="3.8785367"
         ry="0.025858467" /></g></g></svg>
