<?xml version="1.0" encoding="UTF-8" standalone="no"?>
<!-- Created with Inkscape (http://www.inkscape.org/) -->

<svg
   width="210mm"
   height="297mm"
   viewBox="0 0 210 297"
   version="1.1"
   id="svg5"
   xml:space="preserve"
   inkscape:version="1.3.2 (091e20e, 2023-11-25, custom)"
   sodipodi:docname="logo.svg"
   xmlns:inkscape="http://www.inkscape.org/namespaces/inkscape"
   xmlns:sodipodi="http://sodipodi.sourceforge.net/DTD/sodipodi-0.dtd"
   xmlns="http://www.w3.org/2000/svg"
   xmlns:svg="http://www.w3.org/2000/svg"><sodipodi:namedview
     id="namedview7"
     pagecolor="#ffffff"
     bordercolor="#000000"
     borderopacity="0.25"
     inkscape:showpageshadow="2"
     inkscape:pageopacity="0.0"
     inkscape:pagecheckerboard="0"
     inkscape:deskcolor="#d1d1d1"
     inkscape:document-units="mm"
     showgrid="false"
     inkscape:zoom="0.97764853"
     inkscape:cx="386.13059"
     inkscape:cy="744.13245"
     inkscape:window-width="1920"
     inkscape:window-height="991"
     inkscape:window-x="-9"
     inkscape:window-y="-9"
     inkscape:window-maximized="1"
     inkscape:current-layer="layer1" /><defs
     id="defs2" /><g
     inkscape:label="Layer 1"
     inkscape:groupmode="layer"
     id="layer1"><text
       xml:space="preserve"
       style="font-size:50.8px;font-family:sans-serif;-inkscape-font-specification:sans-serif;opacity:0.746667;fill:#b798e6;fill-opacity:1;stroke:#4f41b3;stroke-width:0.4;stroke-linecap:round;stroke-linejoin:bevel;stroke-dasharray:none;stroke-dashoffset:0;stroke-opacity:1"
       x="39.106373"
       y="77.062569"
       id="text366"><tspan
         sodipodi:role="line"
         id="tspan364"
         style="font-style:normal;font-variant:normal;font-weight:normal;font-stretch:normal;font-size:50.8px;font-family:'Bookman Old Style';-inkscape-font-specification:'Bookman Old Style';fill:#b798e6;fill-opacity:1;stroke:#4f41b3;stroke-width:0.4;stroke-dasharray:none;stroke-dashoffset:0;stroke-opacity:1"
         x="39.106373"
         y="77.062569">HTA</tspan></text><text
       xml:space="preserve"
       style="font-size:50.8px;font-family:sans-serif;-inkscape-font-specification:sans-serif;opacity:0.746667;fill:#b798e6;fill-opacity:1;stroke:#4f41b3;stroke-width:0.4;stroke-linecap:round;stroke-linejoin:bevel;stroke-dasharray:none;stroke-dashoffset:0;stroke-opacity:1"
       x="39.74226"
       y="126.34222"
       id="text366-4"><tspan
         sodipodi:role="line"
         id="tspan364-3"
         style="font-style:normal;font-variant:normal;font-weight:normal;font-stretch:normal;font-size:50.8px;font-family:'Bookman Old Style';-inkscape-font-specification:'Bookman Old Style';fill:#b798e6;fill-opacity:1;stroke:#4f41b3;stroke-width:0.4;stroke-dasharray:none;stroke-dashoffset:0;stroke-opacity:1"
         x="39.74226"
         y="126.34222">HTA</tspan></text><text
       xml:space="preserve"
       style="font-style:normal;font-variant:normal;font-weight:normal;font-stretch:normal;font-size:9.87778px;font-family:'Felix Titling';-inkscape-font-specification:'Felix Titling';opacity:0.746667;fill:#b798e6;fill-opacity:1;stroke:#4f41b3;stroke-width:0.4;stroke-linecap:round;stroke-linejoin:bevel;stroke-dasharray:none;stroke-dashoffset:0;stroke-opacity:1"
       x="42.388065"
       y="137.07982"
       id="text3953"><tspan
         sodipodi:role="line"
         id="tspan3951"
         style="font-style:normal;font-variant:normal;font-weight:normal;font-stretch:normal;font-size:9.87778px;font-family:Arial;-inkscape-font-specification:Arial;fill:#4f41b3;fill-opacity:1;stroke-width:0.4"
         x="42.388065"
         y="137.07982">Head and Tail Assigner</tspan></text><rect
       style="opacity:0.746667;fill:#4f41b3;fill-opacity:1;stroke:#4f41b3;stroke-width:0.428984;stroke-linecap:round;stroke-linejoin:bevel;stroke-dasharray:none;stroke-dashoffset:0;stroke-opacity:1"
       id="rect4116"
       width="79.22142"
       height="0.24164578"
       x="43.46793"
       y="138.94791" /><rect
       style="opacity:0.746667;fill:#4f41b3;fill-opacity:1;stroke:#4f41b3;stroke-width:0.231398;stroke-linecap:round;stroke-linejoin:bevel;stroke-dasharray:none;stroke-dashoffset:0;stroke-opacity:1"
       id="rect4116-4"
       width="12.681365"
       height="0.43923163"
       x="129.40001"
       y="138.91676" /><text
       xml:space="preserve"
       style="font-size:50.8px;font-family:sans-serif;-inkscape-font-specification:sans-serif;opacity:0.746667;fill:#b798e6;fill-opacity:1;stroke:#344c64;stroke-width:0.4;stroke-linecap:round;stroke-linejoin:bevel;stroke-dasharray:none;stroke-dashoffset:0;stroke-opacity:0"
       x="41.651634"
       y="274.78741"
       id="text366-4-2"
       inkscape:export-filename="hta_logo.png"
       inkscape:export-xdpi="113.69339"
       inkscape:export-ydpi="113.69339"><tspan
         sodipodi:role="line"
         id="tspan364-3-4"
         style="font-style:normal;font-variant:normal;font-weight:normal;font-stretch:normal;font-size:50.8px;font-family:'Bookman Old Style';-inkscape-font-specification:'Bookman Old Style';fill:#b798e6;fill-opacity:1;stroke:#344c64;stroke-width:0.4;stroke-dasharray:none;stroke-dashoffset:0;stroke-opacity:0"
         x="41.651634"
         y="274.78741">H<tspan
   style="fill:#577b8d;fill-opacity:1"
   id="tspan2">T</tspan><tspan
   style="fill:#57a6a1;fill-opacity:1"
   id="tspan3">A</tspan></tspan></text><path
       style="fill:#344c64;fill-opacity:1;stroke:#344c64;stroke-width:0;stroke-opacity:0"
       d="m 44.24839,273.77121 c 0,-0.75739 0.05705,-0.79195 1.603799,-0.97147 2.765657,-0.32099 2.578137,0.65339 2.675178,-13.90038 0.0463,-6.94315 0.0075,-13.26012 -0.08625,-14.03772 -0.239618,-1.98775 -0.741691,-2.50121 -2.636587,-2.69641 -1.553871,-0.16007 -1.556136,-0.16163 -1.556136,-1.06966 v -0.90935 h 6.495177 6.495177 v 0.91226 c 0,0.91203 -2.65e-4,0.9123 -1.590614,1.09221 -2.611372,0.29545 -2.589805,0.23636 -2.686236,7.36015 l -0.08205,6.06143 h 9.080574 9.080576 v -5.93883 c 0,-5.76936 -0.01738,-5.95894 -0.608923,-6.64416 -0.479186,-0.55507 -0.940472,-0.73933 -2.165058,-0.86485 -1.554033,-0.15929 -1.556137,-0.16074 -1.556137,-1.06886 v -0.90935 h 6.495177 6.495177 v 0.94722 c 0,0.85253 -0.07439,0.94736 -0.744239,0.94872 -1.247124,0.003 -2.752135,0.53451 -3.04143,1.07507 -0.174583,0.3262 -0.273817,5.60316 -0.273817,14.56036 0,16.03049 -0.212098,14.75231 2.50335,15.08618 1.490588,0.18328 1.556136,0.22422 1.556136,0.97205 v 0.78071 H 73.206057 66.71088 v -0.78532 c 0,-0.76255 0.04906,-0.79086 1.691452,-0.97623 2.755601,-0.31099 2.638666,0.0386 2.638666,-7.88784 v -6.85918 h -9.066183 -9.066186 l 0.004,6.56283 c 0.0029,4.73473 0.09903,6.7513 0.345168,7.23942 0.290634,0.57635 0.610782,0.71134 2.161069,0.9112 1.771025,0.22832 1.819891,0.25557 1.819891,1.01487 v 0.78025 H 50.74358 44.248404 Z"
       id="path2" /><text
       xml:space="preserve"
       style="font-style:normal;font-variant:normal;font-weight:normal;font-stretch:normal;font-size:9.87778px;font-family:'Bookman Old Style';-inkscape-font-specification:'Bookman Old Style';fill:#000000;fill-opacity:1;stroke:#4f41b3;stroke-width:0.31056;stroke-dasharray:none;stroke-opacity:0"
       x="43.935425"
       y="294.44376"
       id="text4"
       transform="scale(1.0363194,0.96495346)"><tspan
         sodipodi:role="line"
         id="tspan4"
         style="font-style:normal;font-variant:normal;font-weight:normal;font-stretch:normal;font-size:9.87778px;font-family:Century;-inkscape-font-specification:Century;fill:#010012;fill-opacity:0.823976;stroke-width:0.31056"
         x="43.935425"
         y="294.44376">Head and Tail Assign</tspan></text><text
       xml:space="preserve"
       style="font-size:50.8px;font-family:sans-serif;-inkscape-font-specification:sans-serif;opacity:0.746667;fill:#b798e6;fill-opacity:1;stroke:#344c64;stroke-width:0.4;stroke-linecap:round;stroke-linejoin:bevel;stroke-dasharray:none;stroke-dashoffset:0;stroke-opacity:0"
       x="39.784058"
       y="208.39467"
       id="text366-4-2-9"><tspan
         sodipodi:role="line"
         id="tspan364-3-4-7"
         style="font-style:normal;font-variant:normal;font-weight:normal;font-stretch:normal;font-size:50.8px;font-family:'Bookman Old Style';-inkscape-font-specification:'Bookman Old Style';fill:#b798e6;fill-opacity:1;stroke:#344c64;stroke-width:0.4;stroke-dasharray:none;stroke-dashoffset:0;stroke-opacity:0"
         x="39.784058"
         y="208.39467">H<tspan
   style="fill:#577b8d;fill-opacity:1"
   id="tspan2-3">T</tspan><tspan
   style="fill:#57a6a1;fill-opacity:1"
   id="tspan3-3">A</tspan></tspan></text><path
       style="fill:#344c64;fill-opacity:1;stroke:#344c64;stroke-width:0;stroke-opacity:0"
       d="m 42.380811,207.37845 c 0,-0.75739 0.05705,-0.79195 1.603799,-0.97147 2.765657,-0.32099 2.578137,0.65339 2.675178,-13.90038 0.0463,-6.94315 0.0075,-13.26012 -0.08625,-14.03772 -0.239618,-1.98775 -0.741691,-2.50121 -2.636587,-2.69641 -1.553871,-0.16007 -1.556136,-0.16163 -1.556136,-1.06966 v -0.90935 h 6.495177 6.495177 v 0.91226 c 0,0.91203 -2.65e-4,0.9123 -1.590614,1.09221 -2.611372,0.29545 -2.589805,0.23636 -2.686236,7.36015 l -0.08205,6.06143 h 9.080574 9.080576 v -5.93883 c 0,-5.76936 -0.01738,-5.95894 -0.608923,-6.64416 -0.479186,-0.55507 -0.940472,-0.73933 -2.165058,-0.86485 -1.554033,-0.15929 -1.556137,-0.16074 -1.556137,-1.06886 v -0.90935 h 6.495177 6.495177 v 0.94722 c 0,0.85253 -0.07439,0.94736 -0.744239,0.94872 -1.247124,0.003 -2.752135,0.53451 -3.04143,1.07507 -0.174583,0.3262 -0.273817,5.60316 -0.273817,14.56036 0,16.03049 -0.212098,14.75231 2.50335,15.08618 1.490588,0.18328 1.556136,0.22422 1.556136,0.97205 v 0.78071 h -6.495177 -6.495177 v -0.78532 c 0,-0.76255 0.04906,-0.79086 1.691452,-0.97623 2.755601,-0.31099 2.638666,0.0386 2.638666,-7.88784 V 191.6552 H 60.107236 51.04105 l 0.004,6.56283 c 0.0029,4.73473 0.09903,6.7513 0.345168,7.23942 0.290634,0.57635 0.610782,0.71134 2.161069,0.9112 1.771025,0.22832 1.819891,0.25557 1.819891,1.01487 v 0.78025 h -6.495177 -6.495176 z"
       id="path2-2" /><text
       xml:space="preserve"
       style="font-style:normal;font-variant:normal;font-weight:normal;font-stretch:normal;font-size:9.87778px;font-family:'Bookman Old Style';-inkscape-font-specification:'Bookman Old Style';fill:#000000;fill-opacity:1;stroke:#4f41b3;stroke-width:0.31056;stroke-dasharray:none;stroke-opacity:0"
       x="42.133297"
       y="225.63966"
       id="text4-8"
       transform="scale(1.0363194,0.96495346)"><tspan
         sodipodi:role="line"
         id="tspan4-1"
         style="font-style:normal;font-variant:normal;font-weight:normal;font-stretch:normal;font-size:9.87778px;font-family:Century;-inkscape-font-specification:Century;fill:#010012;fill-opacity:0.823976;stroke-width:0.31056"
         x="42.133297"
         y="225.63966">Head and Tail Assign</tspan></text></g></svg>
